<svg width="120" height="120" viewBox="0 0 120 120" fill="none" xmlns="http://www.w3.org/2000/svg">
  <rect width="120" height="120" rx="32" fill="#203A32"/>
  <path d="M60 26C47.5 36.8 43 48.8 43 61.4C43 76.8 54.5 89 69.4 89C80.5 89 89 81.5 89 70.8C89 62 82.6 55.9 74.4 55.9C67.6 55.9 62.8 60.9 62.8 66.8C62.8 71.7 66.2 75.5 71.3 75.5C74.3 75.5 77 74.1 79 71.5C78.2 79.8 72.3 84.5 64.9 84.5C54.5 84.5 47 76.2 47 64.2C47 50.7 53.5 39.5 68.3 28.8L60 26Z" fill="#FFF8F3"/>
  <path d="M43.4 83.5C49.1 79.7 54.9 77.7 60.9 77.7C68.2 77.7 74 80.4 79.3 85.6" stroke="#B79A63" stroke-width="4.5" stroke-linecap="round"/>
</svg>
